<svg width="160" height="160" viewBox="0 0 160 160" fill="none" xmlns="http://www.w3.org/2000/svg">
  <path fill-rule="evenodd" clip-rule="evenodd"
    d="M158.477 95.613L129.048 89.7909C129.669 86.6484 130 83.3777 130 80C130 76.6223 129.669 73.3516 129.048 70.2091L158.477 64.387C159.476 69.4367 160 74.6572 160 80C160 85.3428 159.476 90.5633 158.477 95.613ZM146.525 35.5507L121.596 52.2403C117.937 46.7748 113.225 42.0629 107.76 38.4038L124.449 13.4748C133.173 19.3154 140.685 26.8266 146.525 35.5507ZM95.613 1.52272L89.7909 30.9524C86.6484 30.3307 83.3777 30 80 30C76.6223 30 73.3516 30.3307 70.2091 30.9524L64.387 1.52272C69.4367 0.523756 74.6572 0 80 0C85.3428 0 90.5633 0.523755 95.613 1.52272ZM35.5507 13.4748L52.2403 38.4038C46.7748 42.0629 42.0629 46.7748 38.4038 52.2403L13.4748 35.5508C19.3154 26.8266 26.8266 19.3154 35.5507 13.4748ZM1.52272 64.387C0.523755 69.4367 0 74.6572 0 80C0 85.3428 0.523756 90.5633 1.52272 95.613L30.9524 89.7909C30.3307 86.6484 30 83.3777 30 80C30 76.6223 30.3307 73.3516 30.9524 70.2091L1.52272 64.387ZM13.4748 124.449L38.4038 107.76C42.0629 113.225 46.7748 117.937 52.2403 121.596L35.5508 146.525C26.8266 140.685 19.3154 133.173 13.4748 124.449ZM64.387 158.477L70.2091 129.048C73.3516 129.669 76.6223 130 80 130C83.3777 130 86.6484 129.669 89.7909 129.048L95.613 158.477C90.5633 159.476 85.3428 160 80 160C74.6572 160 69.4367 159.476 64.387 158.477ZM124.449 146.525L107.76 121.596C113.225 117.937 117.937 113.225 121.596 107.76L146.525 124.449C140.685 133.173 133.173 140.685 124.449 146.525Z"
    fill="#666" />
</svg>