<svg width="400" height="200" viewBox="0 0 400 200" fill="none" xmlns="http://www.w3.org/2000/svg">
<g clip-path="url(#clip0_1333_758)">
<rect width="400" height="200" fill="white"/>
<path d="M0 100L1.00251 98.9947L2.00501 97.9897L3.00752 96.9852L4.01003 95.9814L5.01253 94.9786L6.01504 93.9771L7.01754 92.977L8.02005 91.9787L9.02256 90.9823L10.0251 89.9882L11.0276 88.9965L12.0301 88.0076L13.0326 87.0216L14.0351 86.0388L15.0376 85.0595L16.0401 84.0838L17.0426 83.1121L18.0451 82.1446L19.0476 81.1814L20.0501 80.2229L21.0526 79.2693L22.0551 78.3208L23.0576 77.3776L24.0602 76.44L25.0627 75.5083L26.0652 74.5825L27.0677 73.6631L28.0702 72.7501L29.0727 71.8439L30.0752 70.9446L31.0777 70.0525L32.0802 69.1678L33.0827 68.2906L34.0852 67.4213L35.0877 66.5601L36.0902 65.7071L37.0927 64.8625L38.0952 64.0267L39.0977 63.1997L40.1003 62.3817L41.1028 61.5731L42.1053 60.7739L43.1078 59.9845L44.1103 59.2049L45.1128 58.4353L46.1153 57.676L47.1178 56.9272L48.1203 56.189L49.1228 55.4616L50.1253 54.7452L51.1278 54.0399L52.1303 53.346L53.1328 52.6636L54.1353 51.9929L55.1378 51.334L56.1404 50.6872L57.1429 50.0525L58.1454 49.4301L59.1479 48.8202L60.1504 48.2229L61.1529 47.6384L62.1554 47.0668L63.1579 46.5083L64.1604 45.963L65.1629 45.431L66.1654 44.9125L67.1679 44.4076L68.1704 43.9164L69.1729 43.439L70.1754 42.9756L71.1779 42.5262L72.1805 42.0911L73.183 41.6702L74.1855 41.2637L75.188 40.8717L76.1905 40.4943L77.193 40.1316L78.1955 39.7836L79.198 39.4505L80.2005 39.1324L81.203 38.8292L82.2055 38.5412L83.208 38.2683L84.2105 38.0107L85.213 37.7683L86.2155 37.5413L87.218 37.3297L88.2206 37.1336L89.2231 36.953L90.2256 36.7879L91.2281 36.6385L92.2306 36.5047L93.2331 36.3865L94.2356 36.284L95.2381 36.1973L96.2406 36.1263L97.2431 36.071L98.2456 36.0316L99.2481 36.0079L100.251 36L101.253 36.0079L102.256 36.0316L103.258 36.071L104.261 36.1263L105.263 36.1973L106.266 36.284L107.268 36.3865L108.271 36.5047L109.273 36.6385L110.276 36.7879L111.278 36.953L112.281 37.1336L113.283 37.3297L114.286 37.5413L115.288 37.7683L116.291 38.0107L117.293 38.2683L118.296 38.5412L119.298 38.8292L120.301 39.1324L121.303 39.4505L122.306 39.7836L123.308 40.1316L124.311 40.4943L125.313 40.8717L126.316 41.2637L127.318 41.6702L128.321 42.0911L129.323 42.5262L130.326 42.9756L131.328 43.439L132.331 43.9164L133.333 44.4076L134.336 44.9125L135.338 45.431L136.341 45.963L137.343 46.5083L138.346 47.0668L139.348 47.6384L140.351 48.2229L141.353 48.8202L142.356 49.4301L143.358 50.0525L144.361 50.6872L145.363 51.334L146.366 51.9929L147.368 52.6636L148.371 53.346L149.373 54.0399L150.376 54.7452L151.378 55.4616L152.381 56.189L153.383 56.9272L154.386 57.676L155.388 58.4353L156.391 59.2049L157.393 59.9845L158.396 60.7739L159.398 61.5731L160.401 62.3817L161.404 63.1997L162.406 64.0267L163.409 64.8625L164.411 65.7071L165.414 66.5601L166.416 67.4213L167.419 68.2906L168.421 69.1678L169.424 70.0525L170.426 70.9446L171.429 71.8439L172.431 72.7501L173.434 73.6631L174.436 74.5825L175.439 75.5083L176.441 76.44L177.444 77.3776L178.446 78.3208L179.449 79.2693L180.451 80.2229L181.454 81.1814L182.456 82.1446L183.459 83.1121L184.461 84.0838L185.464 85.0595L186.466 86.0388L187.469 87.0216L188.471 88.0076L189.474 88.9965L190.476 89.9882L191.479 90.9823L192.481 91.9787L193.484 92.977L194.486 93.9771L195.489 94.9786L196.491 95.9814L197.494 96.9852L198.496 97.9897L199.499 98.9947L200.501 100L201.504 101.005L202.506 102.01L203.509 103.015L204.511 104.019L205.514 105.021L206.516 106.023L207.519 107.023L208.521 108.021L209.524 109.018L210.526 110.012L211.529 111.003L212.531 111.992L213.534 112.978L214.536 113.961L215.539 114.941L216.541 115.916L217.544 116.888L218.546 117.855L219.549 118.819L220.551 119.777L221.554 120.731L222.556 121.679L223.559 122.622L224.561 123.56L225.564 124.492L226.566 125.417L227.569 126.337L228.571 127.25L229.574 128.156L230.576 129.055L231.579 129.948L232.581 130.832L233.584 131.709L234.586 132.579L235.589 133.44L236.591 134.293L237.594 135.137L238.596 135.973L239.599 136.8L240.602 137.618L241.604 138.427L242.607 139.226L243.609 140.016L244.612 140.795L245.614 141.565L246.617 142.324L247.619 143.073L248.622 143.811L249.624 144.538L250.627 145.255L251.629 145.96L252.632 146.654L253.634 147.336L254.637 148.007L255.639 148.666L256.642 149.313L257.644 149.948L258.647 150.57L259.649 151.18L260.652 151.777L261.654 152.362L262.657 152.933L263.659 153.492L264.662 154.037L265.664 154.569L266.667 155.087L267.669 155.592L268.672 156.084L269.674 156.561L270.677 157.024L271.679 157.474L272.682 157.909L273.684 158.33L274.687 158.736L275.689 159.128L276.692 159.506L277.694 159.868L278.697 160.216L279.699 160.549L280.702 160.868L281.704 161.171L282.707 161.459L283.709 161.732L284.712 161.989L285.714 162.232L286.717 162.459L287.719 162.67L288.722 162.866L289.724 163.047L290.727 163.212L291.729 163.362L292.732 163.495L293.734 163.613L294.737 163.716L295.739 163.803L296.742 163.874L297.744 163.929L298.747 163.968L299.749 163.992L300.752 164L301.754 163.992L302.757 163.968L303.759 163.929L304.762 163.874L305.764 163.803L306.767 163.716L307.769 163.613L308.772 163.495L309.774 163.362L310.777 163.212L311.779 163.047L312.782 162.866L313.784 162.67L314.787 162.459L315.789 162.232L316.792 161.989L317.794 161.732L318.797 161.459L319.799 161.171L320.802 160.868L321.805 160.549L322.807 160.216L323.81 159.868L324.812 159.506L325.815 159.128L326.817 158.736L327.82 158.33L328.822 157.909L329.825 157.474L330.827 157.024L331.83 156.561L332.832 156.084L333.835 155.592L334.837 155.087L335.84 154.569L336.842 154.037L337.845 153.492L338.847 152.933L339.85 152.362L340.852 151.777L341.855 151.18L342.857 150.57L343.86 149.948L344.862 149.313L345.865 148.666L346.867 148.007L347.87 147.336L348.872 146.654L349.875 145.96L350.877 145.255L351.88 144.538L352.882 143.811L353.885 143.073L354.887 142.324L355.89 141.565L356.892 140.795L357.895 140.016L358.897 139.226L359.9 138.427L360.902 137.618L361.905 136.8L362.907 135.973L363.91 135.137L364.912 134.293L365.915 133.44L366.917 132.579L367.92 131.709L368.922 130.832L369.925 129.948L370.927 129.055L371.93 128.156L372.932 127.25L373.935 126.337L374.937 125.417L375.94 124.492L376.942 123.56L377.945 122.622L378.947 121.679L379.95 120.731L380.952 119.777L381.955 118.819L382.957 117.855L383.96 116.888L384.962 115.916L385.965 114.941L386.967 113.961L387.97 112.978L388.972 111.992L389.975 111.003L390.977 110.012L391.98 109.018L392.982 108.021L393.985 107.023L394.987 106.023L395.99 105.021L396.992 104.019L397.995 103.015L398.997 102.01L400 101.005" stroke="#FFF85C" stroke-width="5" stroke-miterlimit="10" stroke-linecap="square" stroke-linejoin="round"/>
</g>
<defs>
<clipPath id="clip0_1333_758">
<rect width="400" height="200" fill="white"/>
</clipPath>
</defs>
</svg>
